<svg width="1440" height="1024" viewBox="0 0 1440 1024" fill="none" xmlns="http://www.w3.org/2000/svg">
<rect width="1440" height="1024" fill="#232323"/>
<path d="M76.6799 608.839L77.0917 606.882L76.6799 608.839ZM119.935 631.88L118.531 633.304L118.541 633.314L118.552 633.325L119.935 631.88ZM147.758 728.607L145.816 728.129L145.814 728.138L145.812 728.147L147.758 728.607ZM123.092 771.185L121.711 769.739L121.704 769.746L123.092 771.185ZM5.92385 817.479L4.00179 818.032L4.55467 819.954L6.47673 819.401L5.92385 817.479ZM-47.4426 631.952L-47.9955 630.03L-49.9176 630.583L-49.3647 632.505L-47.4426 631.952ZM8.84889 657.538L8.29601 655.616L6.37395 656.169L6.92683 658.091L8.84889 657.538ZM39.8653 765.366L37.9432 765.919L38.4961 767.841L40.4182 767.288L39.8653 765.366ZM22.6169 613.881C41.9169 608.329 59.7874 607.329 76.2682 610.796L77.0917 606.882C59.8651 603.258 41.325 604.337 21.5111 610.037L22.6169 613.881ZM76.2681 610.796C92.7561 614.265 106.827 621.765 118.531 633.304L121.339 630.455C109.076 618.365 94.311 610.505 77.0917 606.882L76.2681 610.796ZM118.552 633.325C130.371 644.636 138.895 659.268 144.082 677.299L147.926 676.194C142.571 657.578 133.715 642.299 121.318 630.435L118.552 633.325ZM144.082 677.299C149.216 695.151 149.774 712.08 145.816 728.129L149.7 729.086C153.844 712.282 153.231 694.637 147.926 676.194L144.082 677.299ZM145.812 728.147C142.03 744.134 134.011 757.987 121.711 769.739L124.474 772.631C137.314 760.364 145.738 745.833 149.705 729.068L145.812 728.147ZM121.704 769.746C109.582 781.442 93.9983 790.064 74.8776 795.564L75.9833 799.408C95.6243 793.758 111.815 784.846 124.481 772.625L121.704 769.746ZM74.8776 795.564L5.37098 815.557L6.47673 819.401L75.9833 799.408L74.8776 795.564ZM7.84592 816.926L-45.5206 631.399L-49.3647 632.505L4.00179 818.032L7.84592 816.926ZM-46.8898 633.874L22.6169 613.881L21.5111 610.037L-47.9955 630.03L-46.8898 633.874ZM61.8252 761.13C79.2708 756.112 91.7378 747.356 98.891 734.706L95.4091 732.737C88.906 744.237 77.4545 752.472 60.7194 757.286L61.8252 761.13ZM98.891 734.706C106.053 722.042 106.961 706.875 101.94 689.421L98.0962 690.527C102.908 707.254 101.904 721.252 95.4091 732.737L98.891 734.706ZM101.94 689.421C96.9193 671.966 88.068 659.521 75.236 652.422L73.2997 655.922C84.9695 662.378 93.2852 673.802 98.0962 690.527L101.94 689.421ZM75.236 652.422C62.4039 645.323 47.1584 644.437 29.703 649.458L30.8087 653.302C47.534 648.491 61.6298 649.466 73.2997 655.922L75.236 652.422ZM29.703 649.458L8.29601 655.616L9.40177 659.46L30.8087 653.302L29.703 649.458ZM6.92683 658.091L37.9432 765.919L41.7874 764.813L10.771 656.985L6.92683 658.091ZM40.4182 767.288L61.8252 761.13L60.7194 757.286L39.3124 763.444L40.4182 767.288ZM200.183 599.926L199.63 598.004L197.708 598.556L198.261 600.478L200.183 599.926ZM210.978 637.454L209.056 638.007L209.609 639.929L211.531 639.376L210.978 637.454ZM271.499 620.045L273.421 619.492L272.868 617.57L270.946 618.123L271.499 620.045ZM281.534 654.931L282.087 656.853L284.009 656.3L283.456 654.378L281.534 654.931ZM221.013 672.339L220.46 670.417L218.538 670.97L219.091 672.892L221.013 672.339ZM232.72 713.039L230.798 713.592L231.351 715.514L233.273 714.961L232.72 713.039ZM301.17 693.35L303.092 692.797L302.539 690.875L300.617 691.428L301.17 693.35ZM311.584 729.557L312.137 731.479L314.059 730.926L313.507 729.004L311.584 729.557ZM197.942 762.245L196.02 762.798L196.573 764.72L198.495 764.167L197.942 762.245ZM144.576 576.718L144.023 574.796L142.101 575.349L142.654 577.271L144.576 576.718ZM258.218 544.029L260.14 543.477L259.587 541.554L257.665 542.107L258.218 544.029ZM268.633 580.236L269.186 582.158L271.108 581.605L270.555 579.683L268.633 580.236ZM198.261 600.478L209.056 638.007L212.9 636.901L202.105 599.373L198.261 600.478ZM211.531 639.376L272.052 621.967L270.946 618.123L210.425 635.532L211.531 639.376ZM269.577 620.598L279.612 655.483L283.456 654.378L273.421 619.492L269.577 620.598ZM280.981 653.009L220.46 670.417L221.566 674.261L282.087 656.853L280.981 653.009ZM219.091 672.892L230.798 713.592L234.642 712.486L222.935 671.786L219.091 672.892ZM233.273 714.961L301.723 695.272L300.617 691.428L232.167 711.117L233.273 714.961ZM299.248 693.903L309.662 730.109L313.507 729.004L303.092 692.797L299.248 693.903ZM311.032 727.634L197.39 760.323L198.495 764.167L312.137 731.479L311.032 727.634ZM199.865 761.693L146.498 576.165L142.654 577.271L196.02 762.798L199.865 761.693ZM145.129 578.64L258.771 545.951L257.665 542.107L144.023 574.796L145.129 578.64ZM256.296 544.582L266.711 580.789L270.555 579.683L260.14 543.477L256.296 544.582ZM268.08 578.314L199.63 598.004L200.736 601.848L269.186 582.158L268.08 578.314ZM461.721 485.492L463.717 485.614L463.889 482.788L461.168 483.57L461.721 485.492ZM449.28 689.949L449.833 691.871L451.191 691.48L451.277 690.07L449.28 689.949ZM392.724 706.217L391.097 707.381L391.919 708.53L393.277 708.139L392.724 706.217ZM273.551 539.619L272.998 537.697L270.277 538.48L271.924 540.783L273.551 539.619ZM321.65 525.783L323.304 524.658L322.489 523.461L321.097 523.861L321.65 525.783ZM407.926 652.626L406.273 653.751L409.689 658.774L409.925 652.704L407.926 652.626ZM413.885 499.252L413.332 497.33L411.943 497.73L411.887 499.174L413.885 499.252ZM459.724 485.371L447.284 689.827L451.277 690.07L463.717 485.614L459.724 485.371ZM448.728 688.027L392.171 704.295L393.277 708.139L449.833 691.871L448.728 688.027ZM394.35 705.053L275.177 538.455L271.924 540.783L391.097 707.381L394.35 705.053ZM274.103 541.541L322.203 527.705L321.097 523.861L272.998 537.697L274.103 541.541ZM319.996 526.908L406.273 653.751L409.58 651.501L323.304 524.658L319.996 526.908ZM409.925 652.704L415.884 499.33L411.887 499.174L405.928 652.548L409.925 652.704ZM414.438 501.174L462.273 487.414L461.168 483.57L413.332 497.33L414.438 501.174ZM536.216 503.267L535.663 501.344L533.741 501.897L534.294 503.819L536.216 503.267ZM547.011 540.795L545.089 541.348L545.642 543.27L547.564 542.717L547.011 540.795ZM607.532 523.386L609.454 522.833L608.901 520.911L606.979 521.464L607.532 523.386ZM617.566 558.272L618.119 560.194L620.041 559.641L619.489 557.719L617.566 558.272ZM557.046 575.68L556.493 573.758L554.571 574.311L555.123 576.233L557.046 575.68ZM568.753 616.38L566.831 616.933L567.384 618.855L569.306 618.302L568.753 616.38ZM637.202 596.691L639.124 596.138L638.571 594.216L636.649 594.769L637.202 596.691ZM647.617 632.897L648.17 634.82L650.092 634.267L649.539 632.345L647.617 632.897ZM533.975 665.586L532.053 666.139L532.606 668.061L534.528 667.508L533.975 665.586ZM480.609 480.059L480.056 478.137L478.134 478.69L478.686 480.612L480.609 480.059ZM594.251 447.37L596.173 446.817L595.62 444.895L593.698 445.448L594.251 447.37ZM604.665 483.577L605.218 485.499L607.14 484.946L606.587 483.024L604.665 483.577ZM534.294 503.819L545.089 541.348L548.933 540.242L538.138 502.714L534.294 503.819ZM547.564 542.717L608.085 525.308L606.979 521.464L546.458 538.873L547.564 542.717ZM605.61 523.939L615.644 558.824L619.489 557.719L609.454 522.833L605.61 523.939ZM617.014 556.349L556.493 573.758L557.598 577.602L618.119 560.194L617.014 556.349ZM555.123 576.233L566.831 616.933L570.675 615.827L558.968 575.127L555.123 576.233ZM569.306 618.302L637.755 598.613L636.649 594.769L568.2 614.458L569.306 618.302ZM635.28 597.244L645.695 633.45L649.539 632.345L639.124 596.138L635.28 597.244ZM647.064 630.975L533.422 663.664L534.528 667.508L648.17 634.82L647.064 630.975ZM535.897 665.033L482.531 479.506L478.686 480.612L532.053 666.139L535.897 665.033ZM481.161 481.981L594.803 449.292L593.698 445.448L480.056 478.137L481.161 481.981ZM592.328 447.923L602.743 484.13L606.587 483.024L596.173 446.817L592.328 447.923ZM604.112 481.655L535.663 501.344L536.769 505.189L605.218 485.499L604.112 481.655ZM712.114 576.573L710.192 577.126L710.745 579.048L712.667 578.495L712.114 576.573ZM771.314 559.544L773.236 558.992L772.683 557.069L770.761 557.622L771.314 559.544ZM781.349 594.43L781.902 596.352L783.824 595.799L783.271 593.877L781.349 594.43ZM676.957 624.458L675.035 625.011L675.587 626.933L677.509 626.38L676.957 624.458ZM623.59 438.931L623.037 437.009L621.115 437.562L621.668 439.484L623.59 438.931ZM668.783 425.931L670.705 425.378L670.152 423.456L668.23 424.009L668.783 425.931ZM712.667 578.495L771.867 561.466L770.761 557.622L711.562 574.651L712.667 578.495ZM769.392 560.097L779.427 594.983L783.271 593.877L773.236 558.992L769.392 560.097ZM780.796 592.508L676.404 622.536L677.509 626.38L781.902 596.352L780.796 592.508ZM678.879 623.905L625.512 438.378L621.668 439.484L675.035 625.011L678.879 623.905ZM624.143 440.853L669.336 427.853L668.23 424.009L623.037 437.009L624.143 440.853ZM666.861 426.484L710.192 577.126L714.036 576.02L670.705 425.378L666.861 426.484ZM839.582 566.519L839.124 568.466L839.134 568.468L839.582 566.519ZM795.23 542.65L793.843 544.09L793.853 544.1L793.864 544.11L795.23 542.65ZM767.027 444.6L765.093 444.089L765.091 444.098L765.089 444.107L767.027 444.6ZM791.917 400.813L790.502 399.4L790.495 399.408L791.917 400.813ZM887.852 373.218L887.394 375.165L887.404 375.167L887.852 373.218ZM931.94 397.164L930.547 398.599L930.554 398.605L930.56 398.612L931.94 397.164ZM960.143 495.213L962.081 495.707L962.084 495.696L960.143 495.213ZM935.517 538.924L936.94 540.33L935.517 538.924ZM910.476 498.626L908.683 497.74L908.679 497.749L908.674 497.758L910.476 498.626ZM887.974 420.398L886.909 422.09L886.925 422.1L886.941 422.11L887.974 420.398ZM816.542 440.659L814.756 439.757L814.752 439.766L814.747 439.775L816.542 440.659ZM839.196 519.415L838.13 521.108L838.146 521.118L838.162 521.128L839.196 519.415ZM890.626 562.918C873.494 567.846 856.64 568.389 840.03 564.57L839.134 568.468C856.434 572.446 873.977 571.87 891.732 566.763L890.626 562.918ZM840.04 564.572C823.607 560.705 809.135 552.919 796.597 541.189L793.864 544.11C806.904 556.309 821.999 564.436 839.124 568.466L840.04 564.572ZM796.617 541.209C784.226 529.28 775.457 514.425 770.327 496.589L766.483 497.695C771.793 516.154 780.908 531.638 793.843 544.09L796.617 541.209ZM770.327 496.589C765.196 478.753 764.758 461.602 768.965 445.094L765.089 444.107C760.692 461.36 761.173 479.236 766.483 497.695L770.327 496.589ZM768.96 445.112C773.35 428.513 781.473 414.227 793.34 402.219L790.495 399.408C778.129 411.921 769.658 426.826 765.093 444.089L768.96 445.112ZM793.332 402.227C805.375 390.166 819.941 381.67 837.073 376.743L835.967 372.899C818.213 378.005 803.044 386.838 790.502 399.4L793.332 402.227ZM837.073 376.743C854.204 371.815 870.967 371.299 887.394 375.165L888.31 371.271C871.18 367.239 853.721 367.792 835.967 372.899L837.073 376.743ZM887.404 375.167C904.005 378.984 918.373 386.789 930.547 398.599L933.332 395.728C920.632 383.407 905.61 375.248 888.3 371.269L887.404 375.167ZM930.56 398.612C942.894 410.361 951.637 425.124 956.767 442.96L960.611 441.854C955.301 423.395 946.21 407.996 933.319 395.715L930.56 398.612ZM956.767 442.96C961.897 460.795 962.362 478.039 958.203 494.729L962.084 495.696C966.426 478.274 965.921 460.314 960.611 441.854L956.767 442.96ZM958.205 494.719C953.991 511.259 945.958 525.513 934.094 537.518L936.94 540.33C949.308 527.814 957.693 512.927 962.081 495.707L958.205 494.719ZM934.094 537.518C922.232 549.522 907.757 557.991 890.626 562.918L891.732 566.763C909.485 561.656 924.57 552.847 936.94 540.33L934.094 537.518ZM879.872 525.534C895.147 521.141 906.029 512.472 912.278 499.493L908.674 497.758C902.981 509.581 893.091 517.57 878.767 521.69L879.872 525.534ZM912.27 499.511C918.683 486.522 919.395 471.662 914.626 455.082L910.782 456.187C915.338 472.026 914.565 485.827 908.683 497.74L912.27 499.511ZM914.626 455.082C909.808 438.333 901.31 426.111 889.008 418.685L886.941 422.11C898.185 428.896 906.173 440.165 910.782 456.187L914.626 455.082ZM889.04 418.705C876.85 411.031 863.025 409.469 847.75 413.862L848.856 417.707C863.181 413.586 875.804 415.099 886.909 422.09L889.04 418.705ZM847.75 413.862C832.318 418.302 821.24 426.917 814.756 439.757L818.327 441.56C824.24 429.851 834.336 421.883 848.856 417.707L847.75 413.862ZM814.747 439.775C808.452 452.555 807.869 467.482 812.732 484.391L816.577 483.285C811.912 467.071 812.587 453.212 818.336 441.543L814.747 439.775ZM812.732 484.391C817.548 501.131 825.974 513.455 838.13 521.108L840.261 517.723C829.122 510.711 821.188 499.316 816.577 483.285L812.732 484.391ZM838.162 521.128C850.478 528.561 864.44 529.973 879.872 525.534L878.767 521.69C864.247 525.867 851.46 524.482 840.229 517.703L838.162 521.128ZM1116.99 393.725L1118.93 394.182L1118.94 394.174L1118.94 394.166L1116.99 393.725ZM1100.42 421.67L1099.02 420.236L1100.42 421.67ZM1036.7 448.868L1036.15 446.946L1034.23 447.499L1034.78 449.421L1036.7 448.868ZM1055.86 515.468L1056.41 517.39L1058.33 516.837L1057.78 514.915L1055.86 515.468ZM1010.67 528.467L1008.74 529.02L1009.3 530.942L1011.22 530.389L1010.67 528.467ZM957.3 342.94L956.747 341.018L954.825 341.571L955.378 343.493L957.3 342.94ZM1070.24 318.752L1070.6 316.785L1070.24 318.752ZM1012.98 366.412L1012.43 364.49L1010.51 365.042L1011.06 366.964L1012.98 366.412ZM1026.36 412.926L1024.44 413.478L1024.99 415.4L1026.92 414.848L1026.36 412.926ZM1113.95 362.55C1116.95 372.99 1117.31 383.225 1115.04 393.285L1118.94 394.166C1121.36 383.417 1120.97 372.499 1117.79 361.444L1113.95 362.55ZM1115.04 393.269C1112.74 403.072 1107.44 412.06 1099.02 420.236L1101.81 423.105C1110.69 414.477 1116.43 404.835 1118.93 394.182L1115.04 393.269ZM1099.02 420.236C1090.67 428.348 1079.09 434.593 1064.16 438.888L1065.27 442.732C1080.64 438.31 1092.86 431.795 1101.81 423.105L1099.02 420.236ZM1064.16 438.888L1036.15 446.946L1037.25 450.79L1065.27 442.732L1064.16 438.888ZM1034.78 449.421L1053.94 516.02L1057.78 514.915L1038.62 448.315L1034.78 449.421ZM1055.31 513.546L1010.11 526.545L1011.22 530.389L1056.41 517.39L1055.31 513.546ZM1012.59 527.914L959.222 342.387L955.378 343.493L1008.74 529.02L1012.59 527.914ZM957.853 344.862L1031.06 323.804L1029.95 319.96L956.747 341.018L957.853 344.862ZM1031.06 323.804C1045.65 319.609 1058.57 318.619 1069.87 320.718L1070.6 316.785C1058.53 314.544 1044.97 315.642 1029.95 319.96L1031.06 323.804ZM1069.87 320.718C1081.22 322.824 1090.54 327.501 1097.92 334.711L1100.71 331.85C1092.7 324.028 1082.64 319.02 1070.6 316.785L1069.87 320.718ZM1097.92 334.711C1105.33 341.956 1110.69 351.212 1113.95 362.55L1117.79 361.444C1114.37 349.525 1108.68 339.637 1100.71 331.85L1097.92 334.711ZM1051.49 407.778C1060.39 405.219 1066.79 401.12 1070.21 395.233L1066.76 393.222C1064.05 397.873 1058.76 401.526 1050.39 403.934L1051.49 407.778ZM1070.21 395.233C1073.62 389.376 1074.05 382.449 1071.81 374.672L1067.96 375.778C1069.98 382.8 1069.48 388.542 1066.76 393.222L1070.21 395.233ZM1071.81 374.672C1069.57 366.894 1065.53 361.253 1059.53 358.1L1057.67 361.641C1062.46 364.16 1065.94 368.755 1067.96 375.778L1071.81 374.672ZM1059.53 358.1C1053.51 354.932 1045.91 354.861 1037.01 357.42L1038.11 361.264C1046.48 358.856 1052.91 359.138 1057.67 361.641L1059.53 358.1ZM1037.01 357.42L1012.43 364.49L1013.54 368.334L1038.11 361.264L1037.01 357.42ZM1011.06 366.964L1024.44 413.478L1028.28 412.373L1014.91 365.859L1011.06 366.964ZM1026.92 414.848L1051.49 407.778L1050.39 403.934L1025.81 411.003L1026.92 414.848ZM1177.83 318.709L1177.27 316.787L1175.35 317.339L1175.9 319.262L1177.83 318.709ZM1188.62 356.237L1186.7 356.79L1187.25 358.712L1189.17 358.159L1188.62 356.237ZM1249.14 338.828L1251.06 338.275L1250.51 336.353L1248.59 336.906L1249.14 338.828ZM1259.18 373.714L1259.73 375.636L1261.65 375.083L1261.1 373.161L1259.18 373.714ZM1198.66 391.122L1198.1 389.2L1196.18 389.753L1196.73 391.675L1198.66 391.122ZM1210.36 431.822L1208.44 432.375L1208.99 434.297L1210.92 433.744L1210.36 431.822ZM1278.81 412.133L1280.73 411.58L1280.18 409.658L1278.26 410.211L1278.81 412.133ZM1289.23 448.34L1289.78 450.262L1291.7 449.709L1291.15 447.787L1289.23 448.34ZM1175.59 481.028L1173.66 481.581L1174.22 483.503L1176.14 482.95L1175.59 481.028ZM1122.22 295.501L1121.67 293.579L1119.74 294.132L1120.3 296.054L1122.22 295.501ZM1235.86 262.812L1237.78 262.26L1237.23 260.337L1235.31 260.89L1235.86 262.812ZM1246.28 299.019L1246.83 300.941L1248.75 300.388L1248.2 298.466L1246.28 299.019ZM1175.9 319.262L1186.7 356.79L1190.54 355.684L1179.75 318.156L1175.9 319.262ZM1189.17 358.159L1249.7 340.75L1248.59 336.906L1188.07 354.315L1189.17 358.159ZM1247.22 339.381L1257.26 374.266L1261.1 373.161L1251.06 338.275L1247.22 339.381ZM1258.62 371.792L1198.1 389.2L1199.21 393.044L1259.73 375.636L1258.62 371.792ZM1196.73 391.675L1208.44 432.375L1212.29 431.269L1200.58 390.569L1196.73 391.675ZM1210.92 433.744L1279.37 414.055L1278.26 410.211L1209.81 429.9L1210.92 433.744ZM1276.89 412.686L1287.31 448.892L1291.15 447.787L1280.73 411.58L1276.89 412.686ZM1288.67 446.417L1175.03 479.106L1176.14 482.95L1289.78 450.262L1288.67 446.417ZM1177.51 480.476L1124.14 294.948L1120.3 296.054L1173.66 481.581L1177.51 480.476ZM1122.77 297.423L1236.41 264.734L1235.31 260.89L1121.67 293.579L1122.77 297.423ZM1233.94 263.365L1244.35 299.572L1248.2 298.466L1237.78 262.26L1233.94 263.365ZM1245.72 297.097L1177.27 316.787L1178.38 320.631L1246.83 300.941L1245.72 297.097ZM1413.18 412.685L1411.76 414.096L1412.6 414.933L1413.73 414.607L1413.18 412.685ZM1354.45 353.749L1355.87 352.337L1355.03 351.5L1353.9 351.826L1354.45 353.749ZM1343.61 356.865L1343.06 354.943L1341.14 355.496L1341.69 357.418L1343.61 356.865ZM1363.76 426.901L1364.31 428.823L1366.23 428.27L1365.68 426.348L1363.76 426.901ZM1318.57 439.9L1316.65 440.453L1317.2 442.375L1319.12 441.822L1318.57 439.9ZM1265.2 254.373L1264.65 252.451L1262.73 253.004L1263.28 254.926L1265.2 254.373ZM1380.52 229.5L1380.15 231.467L1380.17 231.469L1380.52 229.5ZM1409.86 243.953L1408.46 245.384L1408.47 245.39L1408.47 245.396L1409.86 243.953ZM1424.97 307.425L1423.09 306.741L1423.08 306.753L1423.08 306.764L1424.97 307.425ZM1400.24 336.857L1399.16 335.174L1397.02 336.546L1398.86 338.303L1400.24 336.857ZM1464.19 398.013L1464.74 399.935L1468.09 398.973L1465.57 396.567L1464.19 398.013ZM1334.42 324.887L1332.49 325.44L1333.05 327.362L1334.97 326.809L1334.42 324.887ZM1379.18 305.429L1377.45 304.424L1377.44 304.442L1377.43 304.461L1379.18 305.429ZM1369.45 271.601L1368.48 273.351L1368.5 273.361L1368.52 273.371L1369.45 271.601ZM1321.19 278.902L1320.64 276.98L1318.71 277.533L1319.27 279.455L1321.19 278.902ZM1414.6 411.273L1355.87 352.337L1353.03 355.16L1411.76 414.096L1414.6 411.273ZM1353.9 351.826L1343.06 354.943L1344.17 358.787L1355 355.671L1353.9 351.826ZM1341.69 357.418L1361.84 427.453L1365.68 426.348L1345.54 356.313L1341.69 357.418ZM1363.21 424.979L1318.01 437.978L1319.12 441.822L1364.31 428.823L1363.21 424.979ZM1320.49 439.347L1267.12 253.82L1263.28 254.926L1316.65 440.453L1320.49 439.347ZM1265.75 256.295L1341.6 234.477L1340.5 230.633L1264.65 252.451L1265.75 256.295ZM1341.6 234.477C1356.01 230.333 1368.84 229.367 1380.15 231.467L1380.88 227.534C1368.82 225.294 1355.34 226.364 1340.5 230.633L1341.6 234.477ZM1380.17 231.469C1391.69 233.527 1401.09 238.181 1408.46 245.384L1411.25 242.523C1403.24 234.693 1393.08 229.713 1380.87 227.532L1380.17 231.469ZM1408.47 245.396C1415.84 252.474 1421.06 261.291 1424.11 271.901L1427.96 270.795C1424.73 259.559 1419.16 250.112 1411.24 242.511L1408.47 245.396ZM1424.11 271.901C1427.55 283.841 1427.2 295.433 1423.09 306.741L1426.85 308.108C1431.26 295.981 1431.62 283.522 1427.96 270.795L1424.11 271.901ZM1423.08 306.764C1419.17 317.933 1411.26 327.412 1399.16 335.174L1401.32 338.541C1414.02 330.393 1422.6 320.251 1426.85 308.085L1423.08 306.764ZM1398.86 338.303L1462.81 399.458L1465.57 396.567L1401.62 335.412L1398.86 338.303ZM1463.63 396.091L1412.63 410.763L1413.73 414.607L1464.74 399.935L1463.63 396.091ZM1334.97 326.809L1362.98 318.751L1361.88 314.907L1333.86 322.965L1334.97 326.809ZM1362.98 318.751C1371.55 316.288 1377.69 312.252 1380.93 306.397L1377.43 304.461C1374.9 309.042 1369.88 312.606 1361.88 314.907L1362.98 318.751ZM1380.91 306.434C1384.32 300.577 1384.74 293.651 1382.5 285.873L1378.66 286.979C1380.68 294.001 1380.17 299.744 1377.45 304.424L1380.91 306.434ZM1382.5 285.873C1380.36 278.416 1376.35 272.971 1370.38 269.83L1368.52 273.371C1373.34 275.902 1376.75 280.341 1378.66 286.979L1382.5 285.873ZM1370.42 269.851C1364.56 266.612 1357.21 266.458 1348.65 268.921L1349.76 272.766C1357.75 270.465 1363.9 270.816 1368.48 273.351L1370.42 269.851ZM1348.65 268.921L1320.64 276.98L1321.74 280.824L1349.76 272.766L1348.65 268.921ZM1319.27 279.455L1332.49 325.44L1336.34 324.334L1323.11 278.349L1319.27 279.455Z" fill="white" fill-opacity="0.2"/>
</svg>
