<svg width="50" height="50" viewBox="0 0 50 50" fill="none" xmlns="http://www.w3.org/2000/svg">
<circle cx="25" cy="25" r="25" fill="#252929"/>
<path fill-rule="evenodd" clip-rule="evenodd" d="M26.25 20.25V18.5H22.75V20.25H26.25ZM17.5 22V31.625H31.5V22H17.5ZM31.5 20.25C32.4712 20.25 33.25 21.0287 33.25 22V31.625C33.25 32.5962 32.4712 33.375 31.5 33.375H17.5C16.5287 33.375 15.75 32.5962 15.75 31.625L15.7587 22C15.7587 21.0287 16.5287 20.25 17.5 20.25H21V18.5C21 17.5287 21.7787 16.75 22.75 16.75H26.25C27.2212 16.75 28 17.5287 28 18.5V20.25H31.5Z" fill="#48E5C2"/>
</svg>
